<?xml version="1.0" encoding="UTF-8"?>
<svg id="Layer_1" data-name="Layer 1" xmlns="http://www.w3.org/2000/svg" viewBox="0 0 600 120">
  <defs>
    <style>
      .cls-1 {
        fill: none;
      }

      .cls-1, .cls-2 {
        stroke-width: 0px;
      }

      .cls-2 {
        fill: #f9e7e9;
      }
    </style>
  </defs>
  <rect class="cls-1" width="120" height="120"/>
  <g>
    <path class="cls-2" d="m68.02,96.2c-1.47,0-2.93.02-4.4,0-1.71-.02-2.82-1.09-2.84-2.8-.03-2.93-.07-5.87.03-8.79.02-.72.38-1.59.88-2.1,7.38-7.49,14.8-14.94,22.25-22.37,2.47-2.46,6.22-2.46,8.77-.06,1.39,1.31,2.76,2.67,4.07,4.07,2.61,2.78,2.57,6.46-.13,9.15-7.33,7.34-14.7,14.65-22.04,21.97-.64.63-1.36.95-2.27.94-1.44-.02-2.88,0-4.31,0Zm18.19-20.21c-1.73-1.73-3.45-3.45-5.2-5.21-.03.03-.13.08-.21.16-4.75,4.77-9.5,9.54-14.25,14.31-.15.15-.34.37-.34.55-.03,1.63-.02,3.25-.02,4.97,1.47,0,2.84-.03,4.21.01.7.02,1.2-.17,1.7-.68,3.33-3.36,6.7-6.69,10.04-10.03,1.37-1.37,2.74-2.76,4.05-4.09Zm4.12-3.94c.85-.89,1.71-1.78,2.57-2.67.44-.46.5-.96.05-1.42-1.3-1.33-2.6-2.66-3.97-3.92-.23-.21-.95-.25-1.18-.06-1.01.87-1.93,1.85-2.83,2.74,1.8,1.79,3.52,3.5,5.36,5.33Z"/>
    <path class="cls-2" d="m52.77,58.41c3.21,0,6.43-.13,9.64.05,1.8.1,3.6.62,5.35,1.11,1.48.41,2.18,1.93,1.73,3.37-.41,1.32-1.84,2.19-3.22,1.75-2.93-.95-5.92-1-8.94-.98-4.29.02-8.57,0-12.86-.02-8.05-.02-14.47,6.42-14.38,14.46.01,1.24.05,2.49.28,3.7.58,3.07,2.44,4.77,5.55,5.16.92.12,1.85.17,2.78.17,4.62.02,9.25,0,13.87.01,1.29,0,2.34.78,2.69,1.93.33,1.1-.06,2.34-1.07,2.97-.45.28-1.04.49-1.57.5-5.1.03-10.21.07-15.31-.02-1.53-.03-3.1-.32-4.56-.77-4.69-1.43-7.16-4.85-7.82-9.55-.79-5.63.22-10.97,3.4-15.75,3.13-4.71,7.69-7.25,13.22-7.85,3.72-.4,7.48-.33,11.23-.47,0,.08,0,.17,0,.25Z"/>
    <path class="cls-2" d="m52.61,52.88c-8.4-.02-15.27-6.9-15.25-15.3.02-8.5,6.88-15.39,15.29-15.36,8.59.03,15.38,6.85,15.37,15.44,0,8.43-6.9,15.24-15.41,15.22Zm.02-5.43c5.5.01,9.94-4.34,9.97-9.8.03-5.56-4.38-10.02-9.93-10.02-5.39,0-9.87,4.44-9.89,9.82-.02,5.55,4.35,9.99,9.85,10Z"/>
  </g>
  <rect class="cls-1" x="120" width="120" height="120"/>
  <rect class="cls-1" x="240" width="120" height="120"/>
  <rect class="cls-1" x="360" width="120" height="120"/>
  <rect class="cls-1" x="480" width="120" height="120"/>
  <g>
    <path class="cls-2" d="m197.08,65.3c0,8.4.01,16.81,0,25.21,0,3.86-.62,4.45-4.54,4.45-12.46,0-24.93,0-37.39,0-3.47,0-4.23-.74-4.23-4.22-.01-16.99-.01-33.98,0-50.97,0-3.66.65-4.27,4.42-4.27,12.46,0,24.93,0,37.39,0,3.77,0,4.35.56,4.35,4.32.02,8.5,0,16.99,0,25.49Zm-22.6-10.37c3.32,0,6.64,0,9.96,0,1.65,0,3.03-.48,3.02-2.41-.01-1.83-1.4-2.21-2.9-2.22-6.73-.02-13.46-.02-20.19,0-1.6,0-3.1.41-3.03,2.38.07,1.93,1.58,2.25,3.18,2.25,3.32,0,6.64,0,9.96,0Zm-.22,9.07c3.41,0,6.82-.01,10.23,0,1.53,0,2.89-.33,2.96-2.12.08-1.94-1.26-2.43-2.95-2.42-6.72.02-13.45.02-20.18,0-1.68,0-3.23.55-2.87,2.38.17.87,1.82,1.97,2.87,2.06,3.3.27,6.63.1,9.94.1Zm.15,9.26c3.32,0,6.63,0,9.95,0,1.62,0,3.06-.4,3.08-2.35.02-2.04-1.52-2.25-3.09-2.25-6.63,0-13.27,0-19.9,0-1.59,0-3.12.28-3.1,2.27.02,1.93,1.5,2.32,3.11,2.33,3.32,0,6.63,0,9.95,0Z"/>
    <path class="cls-2" d="m158.75,30.82c.66-4.35,3-6.75,6.84-6.78,12.28-.1,24.57-.12,36.86.01,4.34.05,6.9,3.22,6.91,8.04.04,11.09.01,22.17.01,33.26,0,5.08.08,10.16-.03,15.24-.1,4.6-2.6,7.02-7.65,7.3v-2.93c0-14.97,0-29.93,0-44.9,0-6.62-2.61-9.24-9.22-9.24-10.16-.01-20.32,0-30.48,0-1,0-2,0-3.22,0Z"/>
  </g>
  <g>
    <path class="cls-2" d="m326.35,95.88h-.73c-16.34,0-32.67,0-49.01,0-5,0-9.08-3.28-10.11-8.14-.15-.7-.21-1.43-.21-2.15-.01-18.93,0-37.87,0-56.8,0-1.54.8-2.34,2.34-2.34,17.42,0,34.84,0,52.27,0,1.58,0,2.36.79,2.36,2.38,0,19.41.02,38.82-.01,58.23,0,3.21.87,6.05,2.92,8.51.05.06.09.14.2.31Zm-31.57-40.96c5.97,0,11.93,0,17.9,0,1.64,0,2.42-.77,2.42-2.4,0-5.18,0-10.35,0-15.53,0-1.64-.77-2.41-2.4-2.41-11.96,0-23.91,0-35.87,0-1.64,0-2.41.77-2.42,2.4,0,5.15,0,10.31,0,15.46,0,1.73.75,2.48,2.46,2.48,5.97,0,11.93,0,17.9,0Zm-20.36,14.24c0,2.62,0,5.24,0,7.86,0,1.49.81,2.3,2.3,2.3,5.24,0,10.49,0,15.73,0,1.49,0,2.3-.81,2.3-2.3,0-5.24,0-10.49,0-15.73,0-1.5-.81-2.3-2.3-2.3-5.24,0-10.49,0-15.73,0-1.5,0-2.3.81-2.3,2.3,0,2.62,0,5.24,0,7.86Zm20.27,18.58c4.09,0,8.18,0,12.27,0,2.01,0,4.02,0,6.03,0,1.02,0,1.69-.48,1.97-1.35.48-1.48-.49-2.71-2.14-2.71-12.05,0-24.09,0-36.14,0-.18,0-.36,0-.54.02-.81.12-1.36.57-1.6,1.36-.44,1.44.48,2.68,2.04,2.68,6.03,0,12.07,0,18.1,0Zm12.31-28.74c-2.06,0-4.11-.01-6.17,0-1.16.01-1.95.82-1.98,1.97-.03,1.13.76,2.06,1.88,2.07,4.16.03,8.32.02,12.47,0,.85,0,1.45-.46,1.74-1.27.51-1.41-.41-2.76-1.91-2.78-2.01-.02-4.02,0-6.03,0Zm-.04,12.2c1.99,0,3.98,0,5.97,0,1.31,0,2.14-.79,2.16-2.01.02-1.24-.83-2.05-2.18-2.05-3.95,0-7.91,0-11.86,0-1.35,0-2.2.8-2.19,2.04,0,1.24.85,2.02,2.21,2.02,1.97,0,3.93,0,5.9,0Zm-.02,8.14c1.97,0,3.93,0,5.9,0,1.41,0,2.26-.79,2.25-2.05-.02-1.24-.86-2.01-2.22-2.01-3.93,0-7.86,0-11.8,0-1.36,0-2.21.78-2.21,2.02,0,1.24.84,2.04,2.19,2.04,1.97,0,3.93,0,5.9,0Z"/>
    <path class="cls-2" d="m327.58,38.65c2.13,0,4.16-.02,6.19,0,1.05.02,1.86.86,1.94,1.9.01.18,0,.36,0,.54,0,15.46,0,30.92,0,46.38,0,2.33-.77,4.33-2.42,5.99-1.06,1.06-2.27,1.06-3.33-.01-1.55-1.56-2.39-3.44-2.39-5.65-.01-16.2,0-32.41,0-48.61v-.54Z"/>
    <path class="cls-2" d="m278.54,38.66h32.44v12.15h-32.44v-12.15Z"/>
    <path class="cls-2" d="m290.64,75.23h-12.13v-12.12h12.13v12.12Z"/>
  </g>
</svg>