<?xml version="1.0" encoding="UTF-8"?>
<svg id="Layer_1" data-name="Layer 1" xmlns="http://www.w3.org/2000/svg" viewBox="0 0 88 132">
  <defs>
    <style>
      .cls-1 {
        fill: none;
      }

      .cls-1, .cls-2, .cls-3 {
        stroke-width: 0px;
      }

      .cls-2 {
        fill: #c8333e;
      }

      .cls-3 {
        fill: #fff;
      }
    </style>
  </defs>
  <rect class="cls-1" width="44" height="44"/>
  <g>
    <path class="cls-3" d="m22.95,37.52c-9.39,0-17.02-7.64-17.02-17.02S13.56,3.47,22.95,3.47s17.02,7.64,17.02,17.02-7.64,17.02-17.02,17.02Zm0-32.48c-8.53,0-15.46,6.94-15.46,15.46s6.94,15.46,15.46,15.46,15.46-6.94,15.46-15.46-6.94-15.46-15.46-15.46Z"/>
    <path class="cls-3" d="m6.24,40.97c-.79,0-1.58-.3-2.18-.9-.58-.58-.9-1.35-.9-2.18s.32-1.59.9-2.18l5.41-5.41,1.1,1.1-5.41,5.41c-.29.29-.44.67-.44,1.07s.16.79.44,1.07c.59.59,1.55.59,2.14,0l5.95-5.95,1.1,1.1-5.95,5.95c-.6.6-1.39.9-2.18.9Z"/>
    <path class="cls-3" d="m34.57,20.5h-1.56c0-5.54-4.51-10.05-10.06-10.05s-10.06,4.51-10.06,10.05h-1.56c0-6.41,5.21-11.62,11.62-11.62s11.62,5.21,11.62,11.62Z"/>
  </g>
  <rect class="cls-1" y="44" width="44" height="44"/>
  <rect class="cls-1" y="88" width="44" height="44"/>
  <g>
    <path class="cls-3" d="m29.5,46.2c1.8-.07,3.5.12,5.11.77,3.02,1.23,5.18,3.35,6.36,6.39,1.19,3.05,1.06,6.08-.37,9.04-.65,1.35-1.55,2.52-2.7,3.5-.24.2-.34.4-.33.72.02,1.29,0,2.58.01,3.87,0,.39-.09.72-.48.89-.39.16-.7,0-.97-.27-.85-.85-1.7-1.69-2.54-2.55-.16-.17-.31-.2-.54-.16-2.53.46-5.06.52-7.55-.14-2.71-.73-4.83-2.33-6.37-4.68-1.44-2.19-2.04-4.61-1.77-7.22.38-3.59,2.11-6.39,5.12-8.38,2.14-1.41,4.54-1.91,7.01-1.78Zm6.53,22.61c0-.96.02-1.81,0-2.66-.02-.5.15-.86.55-1.16.86-.65,1.58-1.45,2.14-2.37,1.69-2.79,2-5.75.79-8.78-1.17-2.92-3.32-4.83-6.35-5.71-1.94-.57-3.94-.44-5.92-.28-.58.05-1.18.2-1.73.4-3.65,1.33-5.92,3.9-6.51,7.75-.57,3.66.71,6.7,3.56,9.05,1.6,1.31,3.47,2,5.55,2.07,1.69.06,3.38.15,5.03-.34.5-.15.87-.03,1.21.34.52.55,1.07,1.08,1.68,1.7Z"/>
    <path class="cls-3" d="m16.68,82.42c0,.85,0,1.65,0,2.45,0,.39-.09.72-.48.88-.39.17-.7,0-.97-.28-.94-.94-1.87-1.88-2.83-2.81-.14-.13-.37-.23-.56-.23-1.38-.02-2.76,0-4.14-.01-3.21,0-5.57-2.36-5.58-5.57,0-3.87,0-7.74,0-11.61,0-3.21,2.36-5.57,5.56-5.58,2.48,0,4.95,0,7.43,0,.15,0,.31,0,.46.05.35.1.53.36.55.71.02.34-.22.66-.56.74-.16.04-.33.04-.5.04-2.45,0-4.9,0-7.35,0-2.36,0-4.04,1.69-4.04,4.05,0,3.86,0,7.71,0,11.57,0,2.36,1.69,4.04,4.05,4.04,1.54,0,3.07,0,4.61,0,.4,0,.68.13.96.44.56.62,1.18,1.18,1.84,1.83,0-.46,0-.86,0-1.27,0-.73.27-1,1.01-1,2.64,0,5.29,0,7.93,0,2.39,0,4.06-1.68,4.06-4.07,0-1.63,0-3.25,0-4.88,0-.14,0-.29.03-.42.08-.36.39-.61.75-.61.35,0,.67.25.74.62.03.14.03.28.03.42,0,1.64,0,3.28,0,4.91,0,3.21-2.36,5.57-5.57,5.57-2.32,0-4.64,0-6.97,0h-.47Z"/>
    <path class="cls-3" d="m15.24,71.74c-2.6,0-5.21,0-7.81,0-.13,0-.26,0-.39,0-.43-.05-.73-.37-.74-.76,0-.39.3-.72.72-.77.13-.02.26,0,.39,0,5.22,0,10.44,0,15.66,0,.73,0,1.11.28,1.1.79,0,.5-.38.76-1.09.76-2.62,0-5.23,0-7.85,0Z"/>
    <path class="cls-3" d="m13.77,74.52c2.1,0,4.21,0,6.31,0,.18,0,.36,0,.53.06.34.1.51.36.51.7,0,.35-.17.63-.52.73-.18.05-.38.06-.57.06-4.21,0-8.41,0-12.62,0-.05,0-.1,0-.15,0-.59,0-.96-.31-.96-.78,0-.47.37-.77.97-.77,2.17,0,4.33,0,6.5,0Z"/>
    <path class="cls-3" d="m12.75,65.85c1.77,0,3.53,0,5.3,0,.1,0,.21,0,.31,0,.47.03.8.36.8.78,0,.41-.33.72-.78.76-.09,0-.18,0-.27,0-3.58,0-7.17,0-10.75,0-.01,0-.03,0-.04,0-.63,0-1-.28-1.01-.77,0-.48.37-.78.99-.78.3,0,.59,0,.89,0,1.52,0,3.04,0,4.56,0Z"/>
    <path class="cls-3" d="m24.18,75.3c0,.4-.37.77-.77.76-.4,0-.77-.37-.76-.77,0-.4.37-.77.77-.76.4,0,.77.37.76.77Z"/>
    <path class="cls-3" d="m28.98,58.88c0-.3,0-.59,0-.89.02-.66.38-1.14,1.01-1.36.11-.04.22-.07.33-.11.81-.29,1.28-1.1,1.12-1.93-.16-.83-.91-1.44-1.74-1.41-.85.03-1.54.65-1.66,1.5-.02.11-.03.23-.06.34-.09.43-.4.67-.83.63-.4-.04-.68-.36-.68-.8,0-1.63,1.34-3.09,2.97-3.22,1.68-.14,3.22,1.02,3.5,2.62.3,1.7-.53,3.14-2.15,3.73-.2.07-.28.17-.27.38.02.45.01.9,0,1.35,0,.57-.31.92-.77.93-.46,0-.77-.36-.77-.92,0-.28,0-.57,0-.85,0,0,0,0,0,0Z"/>
    <path class="cls-3" d="m29.73,62.17c.4-.01.77.33.79.74.02.4-.32.77-.73.79-.44.02-.8-.32-.8-.75,0-.41.33-.77.75-.78Z"/>
  </g>
  <g>
    <path class="cls-3" d="m35.81,97.58q3.03.31,3.03,3.23c0,8.44,0,16.88,0,25.31q0,2.32-2.38,2.32c-8.25,0-16.5,0-24.76,0-3.87,0-5.13-1.27-5.13-5.2-.01-9.11-.03-18.22-.04-27.33,0-2.58,1.62-4.31,4.15-4.32,7.87-.02,15.74,0,23.6-.03,1.12,0,1.58.38,1.54,1.5-.05,1.48-.01,2.96-.01,4.52Zm1.43,29.34v-27.64c-.6,0-1.12,0-1.64,0-7.54,0-15.07.02-22.61-.01-1.56,0-3.12-.18-4.84-.28,0,.31,0,.77,0,1.24,0,7.82,0,15.64,0,23.46,0,2.56.68,3.24,3.25,3.24,8.16,0,16.32,0,24.48,0,.42,0,.84,0,1.36,0Zm-3.09-33.77c-.4-.03-.64-.06-.87-.06-7.44,0-14.88,0-22.31,0-.47,0-.97.06-1.41.23-1.45.57-1.95,2.51-.8,3.55.53.49,1.44.78,2.18.78,7.39.06,14.78.03,22.17.03.32,0,.65-.04,1.04-.07v-4.47Z"/>
    <path class="cls-3" d="m20.35,111.68c1.46,1.45,3.06,3.05,4.87,4.86,1.66-3.52,4.07-2.13,6.22-1.44.58.19,1.23,1.32,1.19,1.99-.09,1.67.89,3.63-.95,4.93-.34.24-.92.26-1.38.22-8.28-.76-14.99-7.33-15.98-15.6-.23-1.9.45-2.68,2.36-2.72.38,0,.77,0,1.15,0,3.18-.02,4.8,1.64,4.4,4.85-.11.9-1.07,1.69-1.9,2.92Zm10.76,9.31c.04-.9.08-1.37.08-1.84,0-.67.02-1.34-.02-2.01-.01-.21-.13-.48-.29-.62-1.07-.94-3.36-.71-4.18.49-.65.94-1.27,1.09-2.26.48-2.11-1.32-3.82-3.01-5.21-5.08-.8-1.18-.83-2.03.52-2.8.42-.24.91-.83.91-1.26,0-2.39-.63-2.95-2.98-2.94-.24,0-.48.02-.72,0-1.02-.12-1.2.34-1.05,1.27.94,6.09,4.25,10.37,9.87,12.81,1.62.7,3.42.97,5.33,1.49Z"/>
  </g>
  <rect class="cls-1" x="44" width="44" height="44"/>
  <g>
    <path class="cls-2" d="m66.95,37.52c-9.39,0-17.02-7.64-17.02-17.02S57.56,3.47,66.95,3.47s17.02,7.64,17.02,17.02-7.64,17.02-17.02,17.02Zm0-32.48c-8.53,0-15.46,6.94-15.46,15.46s6.94,15.46,15.46,15.46,15.46-6.94,15.46-15.46-6.94-15.46-15.46-15.46Z"/>
    <path class="cls-2" d="m50.24,40.97c-.79,0-1.58-.3-2.18-.9-.58-.58-.9-1.35-.9-2.18s.32-1.59.9-2.18l5.41-5.41,1.1,1.1-5.41,5.41c-.29.29-.44.67-.44,1.07s.16.79.44,1.07c.59.59,1.55.59,2.14,0l5.95-5.95,1.1,1.1-5.95,5.95c-.6.6-1.39.9-2.18.9Z"/>
    <path class="cls-2" d="m78.57,20.5h-1.56c0-5.54-4.51-10.05-10.06-10.05s-10.06,4.51-10.06,10.05h-1.56c0-6.41,5.21-11.62,11.62-11.62s11.62,5.21,11.62,11.62Z"/>
  </g>
  <rect class="cls-1" x="44" y="44" width="44" height="44"/>
  <rect class="cls-1" x="44" y="88" width="44" height="44"/>
  <g>
    <path class="cls-2" d="m73.5,46.2c1.8-.07,3.5.12,5.11.77,3.02,1.23,5.18,3.35,6.36,6.39,1.19,3.05,1.06,6.08-.37,9.04-.65,1.35-1.55,2.52-2.7,3.5-.24.2-.34.4-.33.72.02,1.29,0,2.58.01,3.87,0,.39-.09.72-.48.89-.39.16-.7,0-.97-.27-.85-.85-1.7-1.69-2.54-2.55-.16-.17-.31-.2-.54-.16-2.53.46-5.06.52-7.55-.14-2.71-.73-4.83-2.33-6.37-4.68-1.44-2.19-2.04-4.61-1.77-7.22.38-3.59,2.11-6.39,5.12-8.38,2.14-1.41,4.54-1.91,7.01-1.78Zm6.53,22.61c0-.96.02-1.81,0-2.66-.02-.5.15-.86.55-1.16.86-.65,1.58-1.45,2.14-2.37,1.69-2.79,2-5.75.79-8.78-1.17-2.92-3.32-4.83-6.35-5.71-1.94-.57-3.94-.44-5.92-.28-.58.05-1.18.2-1.73.4-3.65,1.33-5.92,3.9-6.51,7.75-.57,3.66.71,6.7,3.56,9.05,1.6,1.31,3.47,2,5.55,2.07,1.69.06,3.38.15,5.03-.34.5-.15.87-.03,1.21.34.52.55,1.07,1.08,1.68,1.7Z"/>
    <path class="cls-2" d="m60.68,82.42c0,.85,0,1.65,0,2.45,0,.39-.09.72-.48.88-.39.17-.7,0-.97-.28-.94-.94-1.87-1.88-2.83-2.81-.14-.13-.37-.23-.56-.23-1.38-.02-2.76,0-4.14-.01-3.21,0-5.57-2.36-5.58-5.57,0-3.87,0-7.74,0-11.61,0-3.21,2.36-5.57,5.56-5.58,2.48,0,4.95,0,7.43,0,.15,0,.31,0,.46.05.35.1.53.36.55.71.02.34-.22.66-.56.74-.16.04-.33.04-.5.04-2.45,0-4.9,0-7.35,0-2.36,0-4.04,1.69-4.04,4.05,0,3.86,0,7.71,0,11.57,0,2.36,1.69,4.04,4.05,4.04,1.54,0,3.07,0,4.61,0,.4,0,.68.13.96.44.56.62,1.18,1.18,1.84,1.83,0-.46,0-.86,0-1.27,0-.73.27-1,1.01-1,2.64,0,5.29,0,7.93,0,2.39,0,4.06-1.68,4.06-4.07,0-1.63,0-3.25,0-4.88,0-.14,0-.29.03-.42.08-.36.39-.61.75-.61.35,0,.67.25.74.62.03.14.03.28.03.42,0,1.64,0,3.28,0,4.91,0,3.21-2.36,5.57-5.57,5.57-2.32,0-4.64,0-6.97,0h-.47Z"/>
    <path class="cls-2" d="m59.24,71.74c-2.6,0-5.21,0-7.81,0-.13,0-.26,0-.39,0-.43-.05-.73-.37-.74-.76,0-.39.3-.72.72-.77.13-.02.26,0,.39,0,5.22,0,10.44,0,15.66,0,.73,0,1.11.28,1.1.79,0,.5-.38.76-1.09.76-2.62,0-5.23,0-7.85,0Z"/>
    <path class="cls-2" d="m57.77,74.52c2.1,0,4.21,0,6.31,0,.18,0,.36,0,.53.06.34.1.51.36.51.7,0,.35-.17.63-.52.73-.18.05-.38.06-.57.06-4.21,0-8.41,0-12.62,0-.05,0-.1,0-.15,0-.59,0-.96-.31-.96-.78,0-.47.37-.77.97-.77,2.17,0,4.33,0,6.5,0Z"/>
    <path class="cls-2" d="m56.75,65.85c1.77,0,3.53,0,5.3,0,.1,0,.21,0,.31,0,.47.03.8.36.8.78,0,.41-.33.72-.78.76-.09,0-.18,0-.27,0-3.58,0-7.17,0-10.75,0-.01,0-.03,0-.04,0-.63,0-1-.28-1.01-.77,0-.48.37-.78.99-.78.3,0,.59,0,.89,0,1.52,0,3.04,0,4.56,0Z"/>
    <path class="cls-2" d="m68.18,75.3c0,.4-.37.77-.77.76-.4,0-.77-.37-.76-.77,0-.4.37-.77.77-.76.4,0,.77.37.76.77Z"/>
    <path class="cls-2" d="m72.98,58.88c0-.3,0-.59,0-.89.02-.66.38-1.14,1.01-1.36.11-.04.22-.07.33-.11.81-.29,1.28-1.1,1.12-1.93-.16-.83-.91-1.44-1.74-1.41-.85.03-1.54.65-1.66,1.5-.02.11-.03.23-.06.34-.09.43-.4.67-.83.63-.4-.04-.68-.36-.68-.8,0-1.63,1.34-3.09,2.97-3.22,1.68-.14,3.22,1.02,3.5,2.62.3,1.7-.53,3.14-2.15,3.73-.2.07-.28.17-.27.38.02.45.01.9,0,1.35,0,.57-.31.92-.77.93-.46,0-.77-.36-.77-.92,0-.28,0-.57,0-.85,0,0,0,0,0,0Z"/>
    <path class="cls-2" d="m73.73,62.17c.4-.01.77.33.79.74.02.4-.32.77-.73.79-.44.02-.8-.32-.8-.75,0-.41.33-.77.75-.78Z"/>
  </g>
  <g>
    <path class="cls-2" d="m79.81,97.58q3.03.31,3.03,3.23c0,8.44,0,16.88,0,25.31q0,2.32-2.38,2.32c-8.25,0-16.5,0-24.76,0-3.87,0-5.13-1.27-5.13-5.2-.01-9.11-.03-18.22-.04-27.33,0-2.58,1.62-4.31,4.15-4.32,7.87-.02,15.74,0,23.6-.03,1.12,0,1.58.38,1.54,1.5-.05,1.48-.01,2.96-.01,4.52Zm1.43,29.34v-27.64c-.6,0-1.12,0-1.64,0-7.54,0-15.07.02-22.61-.01-1.56,0-3.12-.18-4.84-.28,0,.31,0,.77,0,1.24,0,7.82,0,15.64,0,23.46,0,2.56.68,3.24,3.25,3.24,8.16,0,16.32,0,24.48,0,.42,0,.84,0,1.36,0Zm-3.09-33.77c-.4-.03-.64-.06-.87-.06-7.44,0-14.88,0-22.31,0-.47,0-.97.06-1.41.23-1.45.57-1.95,2.51-.8,3.55.53.49,1.44.78,2.18.78,7.39.06,14.78.03,22.17.03.32,0,.65-.04,1.04-.07v-4.47Z"/>
    <path class="cls-2" d="m64.35,111.68c1.46,1.45,3.06,3.05,4.87,4.86,1.66-3.52,4.07-2.13,6.22-1.44.58.19,1.23,1.32,1.19,1.99-.09,1.67.89,3.63-.95,4.93-.34.24-.92.26-1.38.22-8.28-.76-14.99-7.33-15.98-15.6-.23-1.9.45-2.68,2.36-2.72.38,0,.77,0,1.15,0,3.18-.02,4.8,1.64,4.4,4.85-.11.9-1.07,1.69-1.9,2.92Zm10.76,9.31c.04-.9.08-1.37.08-1.84,0-.67.02-1.34-.02-2.01-.01-.21-.13-.48-.29-.62-1.07-.94-3.36-.71-4.18.49-.65.94-1.27,1.09-2.26.48-2.11-1.32-3.82-3.01-5.21-5.08-.8-1.18-.83-2.03.52-2.8.42-.24.91-.83.91-1.26,0-2.39-.63-2.95-2.98-2.94-.24,0-.48.02-.72,0-1.02-.12-1.2.34-1.05,1.27.94,6.09,4.25,10.37,9.87,12.81,1.62.7,3.42.97,5.33,1.49Z"/>
  </g>
</svg>